<svg width="40" height="40" viewBox="0 0 40 40" fill="none" xmlns="http://www.w3.org/2000/svg">
<path d="M11.6673 7.49992C8.9059 7.49992 6.66732 9.7385 6.66732 12.4999C6.66732 13.4477 6.93102 14.3339 7.38905 15.0891C5.07943 15.5308 3.33398 17.5616 3.33398 19.9999C3.33398 22.4383 5.07943 24.4689 7.38905 24.9108M11.6673 7.49992C11.6673 5.19874 13.5328 3.33325 15.834 3.33325C18.1352 3.33325 20.0007 5.19874 20.0007 7.49992V32.4999C20.0007 34.8011 18.1352 36.6666 15.834 36.6666C13.5328 36.6666 11.6673 34.8011 11.6673 32.4999C8.9059 32.4999 6.66732 30.2614 6.66732 27.4999C6.66732 26.5521 6.93102 25.6659 7.38905 24.9108M11.6673 7.49992C11.6673 8.8631 12.322 10.0734 13.334 10.8336M7.38905 24.9108C7.98312 23.9313 8.9041 23.1719 10.0007 22.7844" stroke="white" stroke-width="1.5" stroke-linecap="round" stroke-linejoin="round"/>
<path d="M28.3333 32.5C31.0948 32.5 33.3333 30.2613 33.3333 27.5C33.3333 26.5521 33.0697 25.666 32.6117 24.9108C34.9212 24.469 36.6667 22.4383 36.6667 20C36.6667 17.5616 34.9212 15.5308 32.6117 15.0891M28.3333 32.5C28.3333 34.8011 26.4678 36.6666 24.1667 36.6666C21.8655 36.6666 20 34.8011 20 32.5V7.49992C20 5.19874 21.8655 3.33325 24.1667 3.33325C26.4678 3.33325 28.3333 5.19874 28.3333 7.49992C31.0948 7.49992 33.3333 9.73849 33.3333 12.4999C33.3333 13.4477 33.0697 14.3339 32.6117 15.0891M28.3333 32.5C28.3333 31.1368 27.6787 29.9265 26.6667 29.1663M32.6117 15.0891C32.0175 16.0686 31.0965 16.8278 30 17.2155" stroke="white" stroke-width="1.5" stroke-linecap="round" stroke-linejoin="round"/>
</svg>
