<svg width="40" height="40" viewBox="0 0 40 40" fill="none" xmlns="http://www.w3.org/2000/svg">
<path d="M15.2638 9.52038L14.5927 8.01042C14.1539 7.02313 13.9345 6.52947 13.6063 6.15168C13.1951 5.67823 12.6591 5.3299 12.0595 5.14642C11.581 5 11.0408 5 9.96035 5C8.37985 5 7.5896 5 6.92621 5.30382C6.14478 5.6617 5.43906 6.4388 5.15788 7.251C4.91918 7.94048 4.98756 8.64905 5.1243 10.0662C6.57985 25.1503 14.8497 33.4201 29.9338 34.8758C31.3509 35.0124 32.0596 35.0808 32.7489 34.8421C33.5613 34.5609 34.3383 33.8553 34.6963 33.0738C34.9999 32.4104 34.9999 31.6201 34.9999 30.0396C34.9999 28.9593 34.9999 28.4191 34.8536 27.9406C34.6701 27.3409 34.3218 26.8049 33.8483 26.3936C33.4706 26.0656 32.9769 25.8461 31.9896 25.4073L30.4796 24.7363C29.4104 24.2611 28.8758 24.0234 28.3326 23.9718C27.8126 23.9223 27.2884 23.9953 26.8018 24.1848C26.2933 24.3828 25.8439 24.7573 24.9449 25.5064C24.0503 26.2519 23.6029 26.6248 23.0563 26.8244C22.5716 27.0016 21.9309 27.0671 21.4206 26.9919C20.8448 26.9071 20.4039 26.6714 19.5221 26.2003C16.7788 24.7341 15.2659 23.2213 13.7998 20.4779C13.3286 19.5961 13.093 19.1553 13.0081 18.5794C12.9329 18.0691 12.9985 17.4284 13.1755 16.9438C13.3752 16.3971 13.748 15.9498 14.4936 15.055C15.2427 14.1561 15.6172 13.7067 15.8152 13.1982C16.0047 12.7116 16.0777 12.1873 16.0282 11.6675C15.9766 11.1242 15.739 10.5896 15.2638 9.52038Z" stroke="white" stroke-width="1.5" stroke-linecap="round"/>
</svg>
