<svg width="40" height="40" viewBox="0 0 40 40" fill="none" xmlns="http://www.w3.org/2000/svg">
<path d="M34.166 17.5V32.5C34.166 33.2765 34.166 33.6648 34.0392 33.9712C33.87 34.3795 33.5455 34.704 33.1372 34.8732C32.8308 35 32.4425 35 31.666 35C30.8895 35 30.5012 35 30.1948 34.8732C29.7865 34.704 29.462 34.3795 29.2928 33.9712C29.166 33.6648 29.166 33.2765 29.166 32.5V17.5C29.166 16.7235 29.166 16.3352 29.2928 16.0289C29.462 15.6205 29.7865 15.296 30.1948 15.1269C30.5012 15 30.8895 15 31.666 15C32.4425 15 32.8308 15 33.1372 15.1269C33.5455 15.296 33.87 15.6205 34.0392 16.0289C34.166 16.3352 34.166 16.7235 34.166 17.5Z" stroke="white" stroke-width="1.5" stroke-linejoin="round"/>
<path d="M27.5 5H32.5V10" stroke="white" stroke-width="1.5" stroke-linecap="round" stroke-linejoin="round"/>
<path d="M31.6667 5.8335C31.6667 5.8335 25 14.1668 7.5 20.0002" stroke="white" stroke-width="1.5" stroke-linecap="round" stroke-linejoin="round"/>
<path d="M22.5 23.3335V32.5002C22.5 33.2767 22.5 33.665 22.3732 33.9713C22.204 34.3797 21.8795 34.7042 21.4712 34.8733C21.1648 35.0002 20.7765 35.0002 20 35.0002C19.2235 35.0002 18.8352 35.0002 18.5288 34.8733C18.1205 34.7042 17.796 34.3797 17.6268 33.9713C17.5 33.665 17.5 33.2767 17.5 32.5002V23.3335C17.5 22.557 17.5 22.1687 17.6268 21.8623C17.796 21.454 18.1205 21.1295 18.5288 20.9603C18.8352 20.8335 19.2235 20.8335 20 20.8335C20.7765 20.8335 21.1648 20.8335 21.4712 20.9603C21.8795 21.1295 22.204 21.454 22.3732 21.8623C22.5 22.1687 22.5 22.557 22.5 23.3335Z" stroke="white" stroke-width="1.5" stroke-linejoin="round"/>
<path d="M10.834 27.5V32.5C10.834 33.2765 10.834 33.6648 10.7071 33.9712C10.538 34.3795 10.2135 34.704 9.80512 34.8732C9.49883 35 9.11055 35 8.33398 35C7.55742 35 7.16913 35 6.86285 34.8732C6.45447 34.704 6.13 34.3795 5.96085 33.9712C5.83398 33.6648 5.83398 33.2765 5.83398 32.5V27.5C5.83398 26.7235 5.83398 26.3352 5.96085 26.0288C6.13 25.6205 6.45447 25.296 6.86285 25.1268C7.16913 25 7.55742 25 8.33398 25C9.11055 25 9.49883 25 9.80512 25.1268C10.2135 25.296 10.538 25.6205 10.7071 26.0288C10.834 26.3352 10.834 26.7235 10.834 27.5Z" stroke="white" stroke-width="1.5" stroke-linejoin="round"/>
</svg>
