<svg width="40" height="40" viewBox="0 0 40 40" fill="none" xmlns="http://www.w3.org/2000/svg">
<path d="M20.0007 28.3333H13.334C8.61993 28.3333 6.26292 28.3333 4.79845 26.8688C3.33398 25.4043 3.33398 23.0473 3.33398 18.3333V15C3.33398 10.286 3.33398 7.92893 4.79845 6.46447C6.26292 5 8.61993 5 13.334 5H26.6673C31.3813 5 33.7383 5 35.2028 6.46447C36.5783 7.83997 36.662 10.0029 36.667 14.1667" stroke="white" stroke-width="1.5" stroke-linecap="round" stroke-linejoin="round"/>
<path d="M26.666 23.3333V29.9999C26.666 32.3569 26.666 33.5354 27.3982 34.2678C28.1305 34.9999 29.309 34.9999 31.666 34.9999C34.023 34.9999 35.2015 34.9999 35.9338 34.2678C36.666 33.5354 36.666 32.3569 36.666 29.9999V23.3333C36.666 20.9763 36.666 19.7978 35.9338 19.0654C35.2015 18.3333 34.023 18.3333 31.666 18.3333C29.309 18.3333 28.1305 18.3333 27.3982 19.0654C26.666 19.7978 26.666 20.9763 26.666 23.3333Z" stroke="white" stroke-width="1.5" stroke-linecap="round" stroke-linejoin="round"/>
<path d="M16.6673 34.9999H13.334M16.6673 34.9999C18.048 34.9999 19.1673 33.8806 19.1673 32.4999V28.3333H20.0007M16.6673 34.9999H20.834V28.3333H20.0007M20.0007 28.3333V34.9999" stroke="white" stroke-width="1.5" stroke-linecap="round" stroke-linejoin="round"/>
</svg>
