<svg width="40" height="40" viewBox="0 0 40 40" fill="none" xmlns="http://www.w3.org/2000/svg">
<path d="M28.334 19.674C28.334 19.0978 28.334 18.8098 28.4207 18.5532C28.6727 17.8072 29.337 17.5178 30.0025 17.2147C30.7507 16.8738 31.1246 16.7035 31.4953 16.6735C31.9161 16.6395 32.3377 16.7302 32.6973 16.932C33.1742 17.1995 33.5067 17.708 33.8472 18.1215C35.4195 20.0312 36.2055 20.9862 36.4932 22.0392C36.7253 22.8888 36.7253 23.7775 36.4932 24.6272C36.0737 26.163 34.7482 27.4505 33.767 28.6422C33.2652 29.2517 33.0142 29.5565 32.6973 29.7343C32.3377 29.9362 31.9161 30.0268 31.4953 29.9928C31.1246 29.9628 30.7507 29.7925 30.0025 29.4517C29.337 29.1485 28.6727 28.8592 28.4207 28.1132C28.334 27.8565 28.334 27.5685 28.334 26.9923V19.674Z" stroke="white" stroke-width="1.5"/>
<path d="M11.6673 19.6741C11.6673 18.9488 11.647 18.2968 11.0605 17.7868C10.8472 17.6013 10.5644 17.4725 9.99883 17.2148C9.25067 16.8741 8.87658 16.7038 8.50592 16.6738C7.39383 16.5838 6.79552 17.3428 6.1542 18.1218C4.5819 20.0315 3.79575 20.9863 3.50808 22.0393C3.27595 22.8891 3.27595 23.7778 3.50808 24.6275C3.92765 26.1633 5.25318 27.4506 6.23433 28.6425C6.8528 29.3936 7.4436 30.079 8.50592 29.9931C8.87658 29.9631 9.25067 29.7926 9.99883 29.452C10.5644 29.1943 10.8472 29.0655 11.0605 28.88C11.647 28.37 11.6673 27.7181 11.6673 26.9926V19.6741Z" stroke="white" stroke-width="1.5"/>
<path d="M33.3327 17.5002V15.0002C33.3327 8.55685 27.3632 3.3335 19.9993 3.3335C12.6355 3.3335 6.66602 8.55685 6.66602 15.0002V17.5002" stroke="white" stroke-width="1.5" stroke-linecap="round" stroke-linejoin="round"/>
<path d="M33.3333 29.1665C33.3333 36.6665 26.6667 36.6665 20 36.6665" stroke="white" stroke-width="1.5" stroke-linecap="round" stroke-linejoin="round"/>
</svg>
