<svg width="40" height="40" viewBox="0 0 40 40" fill="none" xmlns="http://www.w3.org/2000/svg">
<path d="M3.33398 8.33301L14.8557 14.874C19.0652 17.2638 20.9362 17.2638 25.1457 14.874L36.6673 8.33301" stroke="white" stroke-width="1.5" stroke-linejoin="round"/>
<path d="M17.5007 32.5003C16.7235 32.4902 15.9454 32.4753 15.1654 32.4557C9.91787 32.3238 7.29412 32.2578 5.40892 30.3643C3.5237 28.4708 3.46922 25.9148 3.36027 20.8027C3.32523 19.1588 3.32522 17.5248 3.36025 15.881C3.46922 10.7689 3.52368 8.21279 5.4089 6.31931C7.29412 4.42583 9.91787 4.35988 15.1654 4.22796C18.3995 4.14666 21.6018 4.14668 24.836 4.22798C30.0835 4.35989 32.7071 4.42586 34.5923 6.31934C36.4776 8.21281 36.5321 10.7689 36.641 15.8811C36.6571 16.6378 36.6658 16.9945 36.6672 17.5003" stroke="white" stroke-width="1.5" stroke-linecap="round" stroke-linejoin="round"/>
<path d="M31.666 28.333C31.666 29.7137 30.5467 30.833 29.166 30.833C27.7853 30.833 26.666 29.7137 26.666 28.333C26.666 26.9523 27.7853 25.833 29.166 25.833C30.5467 25.833 31.666 26.9523 31.666 28.333ZM31.666 28.333V29.1663C31.666 30.547 32.7853 31.6663 34.166 31.6663C35.5467 31.6663 36.666 30.547 36.666 29.1663V28.333C36.666 24.1908 33.3082 20.833 29.166 20.833C25.0238 20.833 21.666 24.1908 21.666 28.333C21.666 32.4752 25.0238 35.833 29.166 35.833" stroke="white" stroke-width="1.5" stroke-linecap="round" stroke-linejoin="round"/>
</svg>
