<svg width="40" height="40" viewBox="0 0 40 40" fill="none" xmlns="http://www.w3.org/2000/svg">
<path d="M8.33398 34.1665H31.6673" stroke="white" stroke-width="1.5" stroke-linecap="round" stroke-linejoin="round"/>
<path d="M28.1202 29.1668H11.8812C10.1676 29.1668 9.31083 29.1668 8.66103 28.7058C8.01122 28.2448 7.72813 27.4362 7.16197 25.8188L3.41937 15.128C3.22018 14.5389 3.3757 13.8895 3.82107 13.4504C4.38155 12.8979 5.25973 12.8122 5.91927 13.2456L7.97313 14.5955C10.0463 15.958 11.0829 16.6392 12.1309 16.3916C13.1789 16.144 13.801 15.0708 15.0451 12.9245L18.736 6.55703C18.9953 6.10961 19.478 5.8335 20.0007 5.8335C20.5233 5.8335 21.006 6.10961 21.2653 6.55703L24.9562 12.9245C26.2003 15.0708 26.8223 16.144 27.8703 16.3916C28.9185 16.6392 29.955 15.958 32.0281 14.5955L34.082 13.2456C34.7415 12.8122 35.6198 12.8979 36.1803 13.4504C36.6257 13.8895 36.7811 14.5389 36.582 15.128L32.8393 25.8188C32.2731 27.4362 31.9902 28.2448 31.3403 28.7058C30.6905 29.1668 29.8337 29.1668 28.1202 29.1668Z" stroke="white" stroke-width="1.5" stroke-linecap="round" stroke-linejoin="round"/>
</svg>
