<svg width="40" height="40" viewBox="0 0 40 40" fill="none" xmlns="http://www.w3.org/2000/svg">
<path d="M3.33398 13.3333C3.33398 15.5696 16.8255 21.6667 19.9775 21.6667C23.1293 21.6667 36.621 15.5696 36.621 13.3333C36.621 11.097 23.1293 5 19.9775 5C16.8255 5 3.33398 11.097 3.33398 13.3333Z" stroke="white" stroke-width="1.5" stroke-linecap="round" stroke-linejoin="round"/>
<path d="M9.99023 18.3333L10.3988 27.7164C10.4069 27.9043 10.4272 28.0924 10.4817 28.2724C10.65 28.8288 10.9601 29.3343 11.4333 29.6739C15.1358 32.3308 24.8168 32.3308 28.5192 29.6739C28.9927 29.3343 29.3027 28.8288 29.471 28.2724C29.5253 28.0924 29.5457 27.9043 29.554 27.7164L29.9623 18.3333" stroke="white" stroke-width="1.5" stroke-linecap="round" stroke-linejoin="round"/>
<path d="M34.1229 15.8333V27.4999M34.1229 27.4999C32.8029 29.9104 32.2193 31.2019 31.6264 33.3333C31.4978 34.0916 31.5999 34.4738 32.1226 34.8131C32.3349 34.9509 32.5901 34.9999 32.8431 34.9999H35.3771C35.6466 34.9999 35.9184 34.9438 36.1403 34.7908C36.6261 34.4558 36.7511 34.0883 36.6194 33.3333C36.0998 31.3543 35.4378 30.0013 34.1229 27.4999Z" stroke="white" stroke-width="1.5" stroke-linecap="round" stroke-linejoin="round"/>
</svg>
