<svg width="40" height="40" viewBox="0 0 40 40" fill="none" xmlns="http://www.w3.org/2000/svg">
<path d="M13.992 4.25328C16.4502 2.7302 18.5957 3.34398 19.8845 4.32166C20.413 4.72253 20.6772 4.92298 20.8327 4.92298C20.9882 4.92298 21.2524 4.72253 21.7809 4.32166C23.0697 3.34398 25.2152 2.7302 27.6734 4.25328C30.8995 6.25215 31.6295 12.8465 24.1882 18.41C22.7709 19.4697 22.0622 19.9993 20.8327 19.9993C19.6032 19.9993 18.8945 19.4697 17.4772 18.41C10.0359 12.8465 10.7659 6.25215 13.992 4.25328Z" stroke="white" stroke-width="1.5" stroke-linecap="round"/>
<path d="M6.66602 23.3333H10.6574C11.1476 23.3333 11.6311 23.4438 12.0696 23.6559L15.4729 25.3026C15.9114 25.5148 16.3949 25.6251 16.8852 25.6251H18.6228C20.3035 25.6251 21.666 26.9436 21.666 28.5699C21.666 28.6356 21.621 28.6934 21.5557 28.7114L17.3208 29.8824C16.5611 30.0924 15.7477 30.0193 15.041 29.6773L11.4029 27.9171" stroke="white" stroke-width="1.5" stroke-linecap="round" stroke-linejoin="round"/>
<path d="M21.666 27.5L29.3207 25.1482C30.6777 24.7254 32.1445 25.2267 32.9945 26.4039C33.6092 27.2549 33.3588 28.4737 32.4635 28.9904L19.9375 36.2175C19.1408 36.6772 18.2008 36.7894 17.3247 36.5294L6.66602 33.3665" stroke="white" stroke-width="1.5" stroke-linecap="round" stroke-linejoin="round"/>
</svg>
