<svg width="40" height="40" viewBox="0 0 40 40" fill="none" xmlns="http://www.w3.org/2000/svg">
<path d="M21.3807 10.0015C21.5653 9.47977 21.6657 8.91824 21.6657 8.33325C21.6657 5.57184 19.4272 3.33325 16.6657 3.33325C13.9043 3.33325 11.6657 5.57184 11.6657 8.33325C11.6657 8.91824 11.7662 9.47977 11.9508 10.0015C8.14285 10.0154 6.11067 10.1506 4.79685 11.4644C3.48317 12.7781 3.34792 14.81 3.33398 18.6173C3.85483 18.4333 4.41525 18.3333 4.99905 18.3333C7.76048 18.3333 9.99905 20.5718 9.99905 23.3333C9.99905 26.0948 7.76048 28.3333 4.99905 28.3333C4.41525 28.3333 3.85483 28.2333 3.33398 28.0493C3.34792 31.8566 3.48317 33.8884 4.79685 35.2021C6.11053 36.5158 8.14245 36.6511 11.9497 36.6649C11.7658 36.1441 11.6657 35.5838 11.6657 34.9999C11.6657 32.2384 13.9043 29.9999 16.6657 29.9999C19.4272 29.9999 21.6657 32.2384 21.6657 34.9999C21.6657 35.5838 21.5657 36.1441 21.3818 36.6649C25.189 36.6511 27.221 36.5158 28.5347 35.2021C29.8483 33.8883 29.9835 31.8561 29.9975 28.0483C30.5192 28.2328 31.0807 28.3333 31.6657 28.3333C34.4272 28.3333 36.6657 26.0948 36.6657 23.3333C36.6657 20.5718 34.4272 18.3333 31.6657 18.3333C31.0807 18.3333 30.5192 18.4338 29.9975 18.6183C29.9835 14.8104 29.8483 12.7782 28.5347 11.4644C27.2208 10.1506 25.1887 10.0154 21.3807 10.0015Z" stroke="white" stroke-width="1.5" stroke-linejoin="round"/>
</svg>
