<svg width="40" height="40" viewBox="0 0 40 40" fill="none" xmlns="http://www.w3.org/2000/svg">
<path d="M13.334 16.9447L20.206 10.0726C22.0808 8.1978 23.0182 7.2604 24.0527 6.5054C26.1752 4.95633 28.637 3.93661 31.2332 3.53113C32.4987 3.3335 33.8243 3.3335 36.4757 3.3335C36.6142 3.3335 36.6673 3.39703 36.6673 3.52523C36.6673 6.17656 36.6673 7.50225 36.4697 8.7676C36.0642 11.3638 35.0445 13.8256 33.4955 15.9481C32.7405 16.9827 31.803 17.92 29.9283 19.7948L23.0562 26.6668" stroke="white" stroke-width="1.5" stroke-linecap="round" stroke-linejoin="round"/>
<path d="M17.2357 13.4975C14.3975 13.4975 10.8303 12.8962 8.17448 13.9963C6.2285 14.8024 4.79655 16.6688 3.33398 18.1313L8.84393 20.4927C10.3041 21.1185 9.4115 22.9612 9.16977 24.1698C8.9004 25.5167 8.91542 25.5663 9.88662 26.5375L13.4633 30.1142C14.4345 31.0853 14.4841 31.1005 15.8309 30.831C17.0397 30.5893 18.8823 29.6967 19.508 31.1568L21.8695 36.6668C23.332 35.2043 25.1985 33.7723 26.0045 31.8263C27.1046 29.1705 26.5033 25.6033 26.5033 22.7652" stroke="white" stroke-width="1.5" stroke-linejoin="round"/>
<path d="M20.0007 33.3335L18.334 35.0002" stroke="white" stroke-width="1.5" stroke-linecap="round" stroke-linejoin="round"/>
<path d="M6.66667 20L5 21.6667" stroke="white" stroke-width="1.5" stroke-linecap="round" stroke-linejoin="round"/>
<path d="M25 6.7998C27 7.0998 29.1 7.8998 30.269 9.0998C31.7627 10.4201 32.8 12.1998 33.2 14.9998" stroke="white" stroke-width="1.5" stroke-linecap="square"/>
<path d="M29.9 10.1001L27.5 12.5001" stroke="white" stroke-width="1.5" stroke-linecap="round"/>
</svg>
