<svg width="40" height="40" viewBox="0 0 40 40" fill="none" xmlns="http://www.w3.org/2000/svg">
<path d="M26.666 16.6665L28.7102 18.4285C29.5697 19.1692 29.9993 19.5397 29.9993 19.9998C29.9993 20.46 29.5697 20.8305 28.7102 21.5712L26.666 23.3332" stroke="white" stroke-width="1.5" stroke-linecap="round" stroke-linejoin="round"/>
<path d="M13.3333 16.6665L11.2891 18.4285C10.4297 19.1692 10 19.5397 10 19.9998C10 20.46 10.4297 20.8305 11.2891 21.5712L13.3333 23.3332" stroke="white" stroke-width="1.5" stroke-linecap="round" stroke-linejoin="round"/>
<path d="M21.6673 15L18.334 25" stroke="white" stroke-width="1.5" stroke-linecap="round" stroke-linejoin="round"/>
<path d="M4.16602 19.9998C4.16602 12.5359 4.16602 8.80399 6.48475 6.48524C8.8035 4.1665 12.5354 4.1665 19.9993 4.1665C27.4632 4.1665 31.1952 4.1665 33.514 6.48524C35.8327 8.80399 35.8327 12.5359 35.8327 19.9998C35.8327 27.4637 35.8327 31.1957 33.514 33.5145C31.1952 35.8332 27.4632 35.8332 19.9993 35.8332C12.5354 35.8332 8.8035 35.8332 6.48475 33.5145C4.16602 31.1957 4.16602 27.4637 4.16602 19.9998Z" stroke="white" stroke-width="1.5"/>
</svg>
