<svg width="40" height="40" viewBox="0 0 40 40" fill="none" xmlns="http://www.w3.org/2000/svg">
<path d="M25.0007 13.3333C25.0007 8.73097 21.2697 5 16.6673 5C12.065 5 8.33398 8.73097 8.33398 13.3333C8.33398 17.9357 12.065 21.6667 16.6673 21.6667C21.2697 21.6667 25.0007 17.9357 25.0007 13.3333Z" stroke="white" stroke-width="1.5" stroke-linecap="round" stroke-linejoin="round"/>
<path d="M5 33.3332C5 26.8898 10.2234 21.6665 16.6667 21.6665C18.7917 21.6665 20.784 22.2347 22.5 23.2273" stroke="white" stroke-width="1.5" stroke-linecap="round" stroke-linejoin="round"/>
<path d="M30.1752 24.176L31.2017 26.246C31.3417 26.5342 31.715 26.8105 32.0299 26.8635L33.8905 27.1752C35.0804 27.3752 35.3604 28.2455 34.503 29.1042L33.0565 30.5625C32.8115 30.8095 32.6774 31.286 32.7532 31.627L33.1674 33.4325C33.494 34.8615 32.7415 35.4143 31.4875 34.6675L29.7435 33.6265C29.4285 33.4383 28.9095 33.4383 28.5887 33.6265L26.8447 34.6675C25.5965 35.4143 24.8382 34.8557 25.1649 33.4325L25.579 31.627C25.6549 31.286 25.5207 30.8095 25.2757 30.5625L23.8292 29.1042C22.9775 28.2455 23.2517 27.3752 24.4417 27.1752L26.3022 26.8635C26.6114 26.8105 26.9847 26.5342 27.1247 26.246L28.1512 24.176C28.7112 23.0527 29.621 23.0527 30.1752 24.176Z" stroke="white" stroke-width="1.5" stroke-linecap="round" stroke-linejoin="round"/>
</svg>
