<svg width="60" height="60" viewBox="0 0 60 60" fill="none" xmlns="http://www.w3.org/2000/svg">
<path d="M53.75 47.5C52.13 47.5 50.6625 48.135 49.5525 49.1525L42.3375 43.905L42.765 43.66C45.6775 41.995 47.485 38.88 47.485 35.53L47.515 24.4725C47.515 21.12 45.705 18.005 42.795 16.34L42.35 16.085L49.5525 10.8475C50.665 11.8625 52.13 12.5 53.75 12.5C57.195 12.5 60 9.6975 60 6.25C60 2.8025 57.195 0 53.75 0C50.305 0 47.5 2.8025 47.5 6.25C47.5 7.1725 47.7125 8.0425 48.075 8.8325L39.9725 14.7275L34.6775 11.7025C31.8125 10.0675 28.25 10.0675 25.3825 11.7025L20.055 14.745L11.925 8.8325C12.285 8.0425 12.5 7.1725 12.5 6.25C12.5 2.8025 9.695 0 6.25 0C2.805 0 0 2.8025 0 6.25C0 9.6975 2.805 12.5 6.25 12.5C7.87 12.5 9.3375 11.865 10.45 10.8475L17.6775 16.105L17.265 16.34C14.3525 18.005 12.545 21.12 12.545 24.47L12.515 35.5275C12.515 38.88 14.3225 41.995 17.235 43.66L17.6625 43.905L10.4475 49.1525C9.335 48.1375 7.87 47.5025 6.25 47.5025C2.805 47.5025 0 50.305 0 53.7525C0 57.2 2.805 60.0025 6.25 60.0025C9.695 60.0025 12.5 57.2 12.5 53.7525C12.5 52.83 12.2875 51.96 11.925 51.17L20.0425 45.2675L25.3525 48.3025C26.785 49.12 28.3925 49.53 30 49.53C31.6075 49.53 33.215 49.12 34.6475 48.3025L39.9575 45.2675L48.075 51.17C47.715 51.96 47.5 52.83 47.5 53.7525C47.5 57.2 50.305 60.0025 53.75 60.0025C57.195 60.0025 60 57.2 60 53.7525C60 50.305 57.195 47.5 53.75 47.5ZM53.75 2.5C55.8175 2.5 57.5 4.1825 57.5 6.25C57.5 8.3175 55.8175 10 53.75 10C51.6825 10 50 8.3175 50 6.25C50 4.1825 51.6825 2.5 53.75 2.5ZM6.25 10C4.1825 10 2.5 8.3175 2.5 6.25C2.5 4.1825 4.1825 2.5 6.25 2.5C8.3175 2.5 10 4.1825 10 6.25C10 8.3175 8.3175 10 6.25 10ZM6.25 57.5C4.1825 57.5 2.5 55.8175 2.5 53.75C2.5 51.6825 4.1825 50 6.25 50C8.3175 50 10 51.6825 10 53.75C10 55.8175 8.3175 57.5 6.25 57.5ZM18.505 18.5125L26.6225 13.875C27.6725 13.275 28.8525 12.975 30.03 12.975C31.2075 12.975 32.385 13.275 33.4375 13.875L41.555 18.5125C42.2 18.88 42.74 19.37 43.225 19.9075L30 27.465L16.8175 19.9325C17.305 19.385 17.85 18.885 18.505 18.5125ZM18.475 41.485C16.34 40.2675 15.015 37.9825 15.015 35.5275L15.045 24.47C15.045 23.635 15.2475 22.84 15.535 22.08L28.75 29.63V46.8625C28.0025 46.725 27.27 46.5075 26.5925 46.1225L18.475 41.485ZM33.4075 46.1225C32.7325 46.5075 31.9975 46.725 31.25 46.8625V29.63L44.515 22.05C44.8075 22.8175 45.015 23.6225 45.015 24.4675L44.985 35.525C44.985 37.98 43.66 40.265 41.525 41.485L33.4075 46.1225ZM53.7525 57.4975C51.685 57.4975 50.0025 55.815 50.0025 53.7475C50.0025 51.68 51.685 49.9975 53.7525 49.9975C55.82 49.9975 57.5025 51.68 57.5025 53.7475C57.5025 55.815 55.82 57.4975 53.7525 57.4975Z" fill="#FA2120"/>
</svg>
