<svg width="40" height="40" viewBox="0 0 40 40" fill="none" xmlns="http://www.w3.org/2000/svg">
<path d="M11.666 30C8.6178 30.6862 6.66602 31.7405 6.66602 32.9228C6.66602 34.9905 12.6355 36.6667 19.9993 36.6667C27.3632 36.6667 33.3327 34.9905 33.3327 32.9228C33.3327 31.7405 31.3808 30.6862 28.3327 30" stroke="white" stroke-width="1.5" stroke-linecap="round"/>
<path d="M24.1673 14.9997C24.1673 17.3008 22.3018 19.1663 20.0007 19.1663C17.6995 19.1663 15.834 17.3008 15.834 14.9997C15.834 12.6985 17.6995 10.833 20.0007 10.833C22.3018 10.833 24.1673 12.6985 24.1673 14.9997Z" stroke="white" stroke-width="1.5"/>
<path d="M22.0963 29.1557C21.5342 29.697 20.7828 29.9997 20.001 29.9997C19.219 29.9997 18.4677 29.697 17.9055 29.1557C12.7578 24.1677 5.8593 18.5955 9.2235 10.5059C11.0425 6.13187 15.4089 3.33301 20.001 3.33301C24.593 3.33301 28.9593 6.13189 30.7783 10.5059C34.1383 18.5853 27.2567 24.1848 22.0963 29.1557Z" stroke="white" stroke-width="1.5"/>
</svg>
