<svg width="40" height="40" viewBox="0 0 40 40" fill="none" xmlns="http://www.w3.org/2000/svg">
<path d="M25.8327 18.3333C25.8327 15.1117 23.221 12.5 19.9993 12.5C16.7777 12.5 14.166 15.1117 14.166 18.3333C14.166 21.555 16.7777 24.1667 19.9993 24.1667C23.221 24.1667 25.8327 21.555 25.8327 18.3333Z" stroke="white" stroke-width="1.5" stroke-linecap="round" stroke-linejoin="round"/>
<path d="M25.8043 18.9165C26.341 19.0792 26.9101 19.1667 27.4998 19.1667C30.7215 19.1667 33.3331 16.555 33.3331 13.3333C33.3331 10.1117 30.7215 7.5 27.4998 7.5C24.475 7.5 21.9878 9.80233 21.6953 12.7502" stroke="white" stroke-width="1.5" stroke-linecap="round" stroke-linejoin="round"/>
<path d="M18.3038 12.7502C18.0113 9.80233 15.5242 7.5 12.4993 7.5C9.27768 7.5 6.66602 10.1117 6.66602 13.3333C6.66602 16.555 9.27768 19.1667 12.4993 19.1667C13.089 19.1667 13.6583 19.0792 14.1948 18.9165" stroke="white" stroke-width="1.5" stroke-linecap="round" stroke-linejoin="round"/>
<path d="M36.6667 27.5001C36.6667 22.8977 32.5627 19.1667 27.5 19.1667" stroke="white" stroke-width="1.5" stroke-linecap="round" stroke-linejoin="round"/>
<path d="M29.1673 32.5001C29.1673 27.8977 25.0633 24.1667 20.0007 24.1667C14.938 24.1667 10.834 27.8977 10.834 32.5001" stroke="white" stroke-width="1.5" stroke-linecap="round" stroke-linejoin="round"/>
<path d="M12.5007 19.1667C7.43803 19.1667 3.33398 22.8977 3.33398 27.5001" stroke="white" stroke-width="1.5" stroke-linecap="round" stroke-linejoin="round"/>
</svg>
