<svg width="60" height="60" viewBox="0 0 60 60" fill="none" xmlns="http://www.w3.org/2000/svg">
<rect width="60" height="60" rx="30" fill="#FD8D8C"/>
<path d="M33.334 46.6666V23.3333C33.334 18.6192 33.334 16.2622 31.8695 14.7977C30.405 13.3333 28.048 13.3333 23.334 13.3333C18.6199 13.3333 16.2629 13.3333 14.7985 14.7977C13.334 16.2622 13.334 18.6192 13.334 23.3333V36.6666C13.334 41.3806 13.334 43.7376 14.7985 45.2021C16.2629 46.6666 18.6199 46.6666 23.334 46.6666H33.334Z" stroke="white" stroke-width="1.5" stroke-linecap="round"/>
<path d="M20.8327 28.3334H19.166M27.4993 28.3334H25.8327M20.8327 21.6667H19.166M20.8327 35.0001H19.166M27.4993 21.6667H25.8327M27.4993 35.0001H25.8327" stroke="white" stroke-width="1.5" stroke-linecap="round"/>
<path d="M40.8327 34.9999H39.166M40.8327 28.3333H39.166" stroke="white" stroke-width="1.5" stroke-linecap="round"/>
<path d="M40.0007 23.3333H33.334V46.6666H40.0007C43.1433 46.6666 44.7147 46.6666 45.691 45.6903C46.6673 44.7139 46.6673 43.1426 46.6673 39.9999V29.9999C46.6673 26.8573 46.6673 25.2859 45.691 24.3096C44.7147 23.3333 43.1433 23.3333 40.0007 23.3333Z" stroke="white" stroke-width="1.5" stroke-linecap="round"/>
</svg>
